{"title":"The Midnight Man 2016 Movies HDRip XviD ESubs New +Sample ☻rDX☻","uid":13713971,"size":738863862,"categoryP":"video","categoryS":"movies","magnet":"?xt=urn:btih:f21ee0c90c39e43b209e0b2aab1038597ecf6fca&amp;dn=The+Midnight+Man+2016+Movies+HDRip+XviD+ESubs+New+%2BSample+%E2%98%BBrDX%E2%98%BB&amp;tr=udp%3A%2F%2Ftracker.leechers-paradise.org%3A6969&amp;tr=udp%3A%2F%2Fzer0day.ch%3A1337&amp;tr=udp%3A%2F%2Fopen.demonii.com%3A1337&amp;tr=udp%3A%2F%2Ftracker.coppersurfer.tk%3A6969&amp;tr=udp%3A%2F%2Fexodus.desync.com%3A6969","seeders":3,"leechers":0,"uploader":"basicssom","files":3,"time":1456889489,"description":"----------------------------------------------------------------\r\nThe Midnight Man 2016 English Movies HDRip XviD ESubs AAC New Source with Sample ~ ☻rDX☻\r\n\r\nSCREEN SHOTS &amp; POSTER:\r\n  \nhttp://mobileshosting.com/2016/3/insurance/index.htm  \nhttp://mobileshosting.com/2016/3/insurance/1.html  \nhttp://mobileshosting.com/2016/3/insurance/2.html  \nhttp://mobileshosting.com/2016/3/insurance/3.html  \nhttp://mobileshosting.com/2016/3/insurance/4.html  \nhttp://mobileshosting.com/2016/3/insurance/5.html  \nhttp://mobileshosting.com/2016/3/insurance/6.html  \nhttp://mobileshosting.com/2016/3/insurance/7.html  \nhttp://mobileshosting.com/2016/3/insurance/8.html  \nhttp://mobileshosting.com/2016/3/insurance/9.html  \nhttp://mobileshosting.com/2016/3/insurance/10.html\r\n\r\nFormat                                   : Matroska\r\nFormat version                           : Version 4 / Version 2\r\nFile size                                : 693 MiB\r\nDuration                                 : 1h 43mn\r\nOverall bit rate                         : 940 Kbps\r\nMovie name                               : The Midnight Man 2016 English Movies HDRip XviD ESubs AAC New Source ☻rDX☻\r\n\r\nVideo\r\nID                                       : 1\r\nFormat                                   : MPEG-4 Visual\r\nFormat profile                           : Advanced   \r\nFormat settings, BVOP                    : Yes\r\nFormat settings, QPel                    : No\r\nFormat settings, GMC                     : No warppoints\r\nFormat settings, Matrix                  : Default (H.263)\r\nCodec ID                                 : V_MS/VFW/FOURCC / XVID\r\nCodec ID/Hint                            : XviD\r\nDuration                                 : 1h 43mn\r\nBit rate                                 : 793 Kbps\r\nWidth                                    : 640 pixels\r\nHeight                                   : 272 pixels\r\nDisplay aspect ratio                     : 2.35:1\r\nFrame rate mode                          : Constant\r\nFrame rate                               : 23.976 fps\r\nColor space                              : YUV\r\nChroma subsampling                       : 4:2:0\r\nBit depth                                : 8 bits\r\nScan type                                : Progressive\r\nCompression mode                         : Lossy\r\nBits/(Pixel*Frame)                       : 0.190\r\nStream size                              : 585 MiB (84%)\r\nTitle                                    : ☻rDX☻\r\nWriting library                          : XviD 67\r\nDefault                                  : Yes\r\nForced                                   : No\r\n\r\nAudio\r\nID                                       : 2\r\nFormat                                   : MPEG Audio\r\nFormat version                           : Version 1\r\nFormat profile                           : Layer 3\r\nMode                                     : Joint stereo\r\nMode extension                           : MS Stereo\r\nCodec ID                                 : A_MPEG/L3\r\nCodec ID/Hint                            : MP3\r\nDuration                                 : 1h 43mn\r\nBit rate mode                            : Constant\r\nBit rate                                 : 128 Kbps\r\nChannel(s)                               : 2 channels\r\nSampling rate                            : 48.0 KHz\r\nCompression mode                         : Lossy\r\nStream size                              : 94.4 MiB (14%)\r\nTitle                                    : ☻rDX☻\r\nWriting library                          : LAME3.99r\r\nEncoding settings                        : -m j -V 4 -q 3 -lowpass 17 -b 128\r\nDefault                                  : Yes\r\nForced                                   : No\r\n\r\nIMDB                                      \nhttp://www.imdb.com/title/tt3685586/","torrent":{"xt":"urn:btih:f21ee0c90c39e43b209e0b2aab1038597ecf6fca","amp;dn":"The+Midnight+Man+2016+Movies+HDRip+XviD+ESubs+New+%2BSample+%E2%98%BBrDX%E2%98%BB","amp;tr":["udp%3A%2F%2Ftracker.leechers-paradise.org%3A6969","udp%3A%2F%2Fzer0day.ch%3A1337","udp%3A%2F%2Fopen.demonii.com%3A1337","udp%3A%2F%2Ftracker.coppersurfer.tk%3A6969","udp%3A%2F%2Fexodus.desync.com%3A6969"],"infoHash":"f21ee0c90c39e43b209e0b2aab1038597ecf6fca","infoHashBuffer":{"type":"Buffer","data":[242,30,224,201,12,57,228,59,32,158,11,42,171,16,56,89,126,207,111,202]},"announce":[],"urlList":[]}}